<svg xmlns="http://www.w3.org/2000/svg" width="95" height="26" fill="none" xmlns:v="https://vecta.io/nano"><mask id="A" maskUnits="userSpaceOnUse" x="19.16" y="4.76" width="75" height="16" fill="#000"><path fill="#fff" d="M19.16 4.76h75v16h-75z"/><path d="M25.14 20.24c-.987 0-1.853-.18-2.6-.54a4.24 4.24 0 0 1-1.74-1.54c-.413-.667-.627-1.46-.64-2.38h2.24a2.67 2.67 0 0 0 .72 1.82c.48.493 1.147.74 2 .74.787 0 1.4-.18 1.84-.54a1.8 1.8 0 0 0 .66-1.44c0-.493-.133-.9-.4-1.22-.253-.333-.653-.627-1.2-.88-.547-.267-1.253-.54-2.12-.82-1.16-.373-2.013-.887-2.56-1.54-.547-.667-.82-1.48-.82-2.44 0-1.107.4-2 1.2-2.68s1.9-1.02 3.3-1.02c1.36 0 2.453.353 3.28 1.06.827.693 1.253 1.66 1.28 2.9h-2.26a1.82 1.82 0 0 0-.28-.96c-.187-.32-.453-.58-.8-.78-.347-.213-.773-.32-1.28-.32-.627-.013-1.153.14-1.58.46-.427.307-.64.727-.64 1.26a1.79 1.79 0 0 0 .78 1.54c.52.36 1.367.733 2.54 1.12.733.24 1.38.533 1.94.88a3.69 3.69 0 0 1 1.34 1.3c.333.52.5 1.187.5 2 0 .747-.187 1.427-.56 2.04-.373.6-.913 1.08-1.62 1.44-.693.36-1.533.54-2.52.54zM36.412 20V6h4.74c1.067 0 1.947.187 2.64.56.693.36 1.207.86 1.54 1.5s.5 1.373.5 2.2-.167 1.56-.5 2.2-.847 1.147-1.54 1.52c-.693.36-1.573.54-2.64.54h-2.62V20h-2.12zm2.12-7.38h2.52c.907 0 1.567-.213 1.98-.64.427-.427.64-1 .64-1.72 0-.707-.213-1.273-.64-1.7-.413-.44-1.073-.66-1.98-.66h-2.52v4.72zm18.452 7.62c-1.133 0-2.113-.293-2.94-.88s-1.46-1.42-1.9-2.5-.66-2.367-.66-3.86.22-2.78.66-3.86 1.073-1.913 1.9-2.5 1.807-.88 2.94-.88c1.147 0 2.127.293 2.94.88.827.587 1.46 1.42 1.9 2.5s.66 2.367.66 3.86-.22 2.78-.66 3.86-1.073 1.913-1.9 2.5c-.813.587-1.793.88-2.94.88zm0-2c1 0 1.807-.447 2.42-1.34.613-.907.92-2.207.92-3.9s-.307-2.987-.92-3.88c-.613-.907-1.42-1.36-2.42-1.36-1.013 0-1.827.453-2.44 1.36-.6.893-.9 2.187-.9 3.88s.3 2.993.9 3.9c.613.893 1.427 1.34 2.44 1.34zM71.917 20V7.9h-3.76V6h9.64v1.9h-3.76V20h-2.12zm17.192.24c-.987 0-1.853-.18-2.6-.54a4.24 4.24 0 0 1-1.74-1.54c-.413-.667-.627-1.46-.64-2.38h2.24a2.67 2.67 0 0 0 .72 1.82c.48.493 1.147.74 2 .74.787 0 1.4-.18 1.84-.54a1.8 1.8 0 0 0 .66-1.44c0-.493-.133-.9-.4-1.22-.253-.333-.653-.627-1.2-.88-.547-.267-1.253-.54-2.12-.82-1.16-.373-2.013-.887-2.56-1.54-.547-.667-.82-1.48-.82-2.44 0-1.107.4-2 1.2-2.68s1.9-1.02 3.3-1.02c1.36 0 2.453.353 3.28 1.06.827.693 1.253 1.66 1.28 2.9h-2.26a1.82 1.82 0 0 0-.28-.96c-.187-.32-.453-.58-.8-.78-.347-.213-.773-.32-1.28-.32-.627-.013-1.153.14-1.58.46-.427.307-.64.727-.64 1.26a1.79 1.79 0 0 0 .78 1.54c.52.36 1.367.733 2.54 1.12.733.24 1.38.533 1.94.88a3.69 3.69 0 0 1 1.34 1.3c.333.52.5 1.187.5 2 0 .747-.187 1.427-.56 2.04-.373.6-.913 1.08-1.62 1.44-.693.36-1.533.54-2.52.54z"/></mask><g fill="#212121"><use href="#C"/><path d="M36.412 20V6h4.74c1.067 0 1.947.187 2.64.56.693.36 1.207.86 1.54 1.5s.5 1.373.5 2.2-.167 1.56-.5 2.2-.847 1.147-1.54 1.52c-.693.36-1.573.54-2.64.54h-2.62V20h-2.12zm2.12-7.38h2.52c.907 0 1.567-.213 1.98-.64.427-.427.64-1 .64-1.72 0-.707-.213-1.273-.64-1.7-.413-.44-1.073-.66-1.98-.66h-2.52v4.72zm18.452 7.62c-1.133 0-2.113-.293-2.94-.88s-1.46-1.42-1.9-2.5-.66-2.367-.66-3.86.22-2.78.66-3.86 1.073-1.913 1.9-2.5 1.807-.88 2.94-.88c1.147 0 2.127.293 2.94.88.827.587 1.46 1.42 1.9 2.5s.66 2.367.66 3.86-.22 2.78-.66 3.86-1.073 1.913-1.9 2.5c-.813.587-1.793.88-2.94.88zm0-2c1 0 1.807-.447 2.42-1.34.613-.907.92-2.207.92-3.9s-.307-2.987-.92-3.88c-.613-.907-1.42-1.36-2.42-1.36-1.013 0-1.827.453-2.44 1.36-.6.893-.9 2.187-.9 3.88s.3 2.993.9 3.9c.613.893 1.427 1.34 2.44 1.34zM71.917 20V7.9h-3.76V6h9.64v1.9h-3.76V20h-2.12z"/><use href="#C" x="63.969"/></g><path d="M25.14 20.24c-.987 0-1.853-.18-2.6-.54a4.24 4.24 0 0 1-1.74-1.54c-.413-.667-.627-1.46-.64-2.38h2.24a2.67 2.67 0 0 0 .72 1.82c.48.493 1.147.74 2 .74.787 0 1.4-.18 1.84-.54a1.8 1.8 0 0 0 .66-1.44c0-.493-.133-.9-.4-1.22-.253-.333-.653-.627-1.2-.88-.547-.267-1.253-.54-2.12-.82-1.16-.373-2.013-.887-2.56-1.54-.547-.667-.82-1.48-.82-2.44 0-1.107.4-2 1.2-2.68s1.9-1.02 3.3-1.02c1.36 0 2.453.353 3.28 1.06.827.693 1.253 1.66 1.28 2.9h-2.26a1.82 1.82 0 0 0-.28-.96c-.187-.32-.453-.58-.8-.78-.347-.213-.773-.32-1.28-.32-.627-.013-1.153.14-1.58.46-.427.307-.64.727-.64 1.26a1.79 1.79 0 0 0 .78 1.54c.52.36 1.367.733 2.54 1.12.733.24 1.38.533 1.94.88a3.69 3.69 0 0 1 1.34 1.3c.333.52.5 1.187.5 2 0 .747-.187 1.427-.56 2.04-.373.6-.913 1.08-1.62 1.44-.693.36-1.533.54-2.52.54zM36.412 20V6h4.74c1.067 0 1.947.187 2.64.56.693.36 1.207.86 1.54 1.5s.5 1.373.5 2.2-.167 1.56-.5 2.2-.847 1.147-1.54 1.52c-.693.36-1.573.54-2.64.54h-2.62V20h-2.12zm2.12-7.38h2.52c.907 0 1.567-.213 1.98-.64.427-.427.64-1 .64-1.72 0-.707-.213-1.273-.64-1.7-.413-.44-1.073-.66-1.98-.66h-2.52v4.72zm18.452 7.62c-1.133 0-2.113-.293-2.94-.88s-1.46-1.42-1.9-2.5-.66-2.367-.66-3.86.22-2.78.66-3.86 1.073-1.913 1.9-2.5 1.807-.88 2.94-.88c1.147 0 2.127.293 2.94.88.827.587 1.46 1.42 1.9 2.5s.66 2.367.66 3.86-.22 2.78-.66 3.86-1.073 1.913-1.9 2.5c-.813.587-1.793.88-2.94.88zm0-2c1 0 1.807-.447 2.42-1.34.613-.907.92-2.207.92-3.9s-.307-2.987-.92-3.88c-.613-.907-1.42-1.36-2.42-1.36-1.013 0-1.827.453-2.44 1.36-.6.893-.9 2.187-.9 3.88s.3 2.993.9 3.9c.613.893 1.427 1.34 2.44 1.34zM71.917 20V7.9h-3.76V6h9.64v1.9h-3.76V20h-2.12zm17.192.24c-.987 0-1.853-.18-2.6-.54a4.24 4.24 0 0 1-1.74-1.54c-.413-.667-.627-1.46-.64-2.38h2.24a2.67 2.67 0 0 0 .72 1.82c.48.493 1.147.74 2 .74.787 0 1.4-.18 1.84-.54a1.8 1.8 0 0 0 .66-1.44c0-.493-.133-.9-.4-1.22-.253-.333-.653-.627-1.2-.88-.547-.267-1.253-.54-2.12-.82-1.16-.373-2.013-.887-2.56-1.54-.547-.667-.82-1.48-.82-2.44 0-1.107.4-2 1.2-2.68s1.9-1.02 3.3-1.02c1.36 0 2.453.353 3.28 1.06.827.693 1.253 1.66 1.28 2.9h-2.26a1.82 1.82 0 0 0-.28-.96c-.187-.32-.453-.58-.8-.78-.347-.213-.773-.32-1.28-.32-.627-.013-1.153.14-1.58.46-.427.307-.64.727-.64 1.26a1.79 1.79 0 0 0 .78 1.54c.52.36 1.367.733 2.54 1.12.733.24 1.38.533 1.94.88a3.69 3.69 0 0 1 1.34 1.3c.333.52.5 1.187.5 2 0 .747-.187 1.427-.56 2.04-.373.6-.913 1.08-1.62 1.44-.693.36-1.533.54-2.52.54z" stroke="#212121" stroke-width=".4" mask="url(#A)"/><g stroke="#212121" stroke-width="2.5"><path d="M6 4v8"/><path d="M1 9l5 4 5-4" stroke-linejoin="bevel"/></g><circle cx="6" cy="18" r="2" fill="#212121"/><defs ><path id="C" d="M25.14 20.24c-.987 0-1.853-.18-2.6-.54-.733-.36-1.313-.873-1.74-1.54-.413-.667-.627-1.46-.64-2.38h2.24a2.67 2.67 0 0 0 .72 1.82c.48.493 1.147.74 2 .74.787 0 1.4-.18 1.84-.54a1.8 1.8 0 0 0 .66-1.44c0-.493-.133-.9-.4-1.22-.253-.333-.653-.627-1.2-.88-.547-.267-1.253-.54-2.12-.82-1.16-.373-2.013-.887-2.56-1.54-.547-.667-.82-1.48-.82-2.44 0-1.107.4-2 1.2-2.68s1.9-1.02 3.3-1.02c1.36 0 2.453.353 3.28 1.06.827.693 1.253 1.66 1.28 2.9h-2.26a1.82 1.82 0 0 0-.28-.96c-.187-.32-.453-.58-.8-.78-.347-.213-.773-.32-1.28-.32-.627-.013-1.153.14-1.58.46-.427.307-.64.727-.64 1.26a1.79 1.79 0 0 0 .78 1.54c.52.36 1.367.733 2.54 1.12.733.24 1.38.533 1.94.88a3.69 3.69 0 0 1 1.34 1.3c.333.52.5 1.187.5 2 0 .747-.187 1.427-.56 2.04-.373.6-.913 1.08-1.62 1.44-.693.36-1.533.54-2.52.54z"/></defs></svg>